<svg width="13" height="12" viewBox="0 0 13 12" fill="none" xmlns="http://www.w3.org/2000/svg">
<path d="M9.28641 0H3.09967C1.39047 0 0 1.39088 0 3.10058V8.76222C0 10.4719 1.39047 11.8628 3.09967 11.8628H9.28641C10.9956 11.8628 12.3861 10.4719 12.3861 8.76222V3.10058C12.3861 1.39088 10.9956 0 9.28641 0ZM1.09347 3.10058C1.09347 1.99418 1.9936 1.09379 3.09967 1.09379H9.28641C10.3925 1.09379 11.2926 1.99418 11.2926 3.10058V8.76222C11.2926 9.86862 10.3925 10.769 9.28641 10.769H3.09967C1.9936 10.769 1.09347 9.86862 1.09347 8.76222V3.10058Z" fill="#595959"/>
<path d="M6.19307 8.81477C7.78248 8.81477 9.07629 7.52128 9.07629 5.9307C9.07629 4.34012 7.78318 3.04663 6.19307 3.04663C4.60295 3.04663 3.30984 4.34012 3.30984 5.9307C3.30984 7.52128 4.60295 8.81477 6.19307 8.81477ZM6.19307 4.14112C7.18006 4.14112 7.98282 4.94412 7.98282 5.9314C7.98282 6.91868 7.18006 7.72168 6.19307 7.72168C5.20608 7.72168 4.40331 6.91868 4.40331 5.9314C4.40331 4.94412 5.20608 4.14112 6.19307 4.14112Z" fill="#595959"/>
<path d="M9.34319 3.51265C9.77119 3.51265 10.12 3.1644 10.12 2.73557C10.12 2.30674 9.77189 1.9585 9.34319 1.9585C8.91449 1.9585 8.56635 2.30674 8.56635 2.73557C8.56635 3.1644 8.91449 3.51265 9.34319 3.51265Z" fill="#595959"/>
</svg>
