<svg width="13" height="15" viewBox="0 0 13 15" fill="none" xmlns="http://www.w3.org/2000/svg">
<path d="M9.3126 6.44264C11.1051 7.19726 11.987 9.00359 11.4021 10.873C11.0035 12.1489 9.86808 13.1796 8.65137 13.6455C7.11734 14.2348 5.05726 14.197 3.54425 13.5692C0.47551 12.2975 -0.240361 8.76607 0.0643416 5.82814C0.276583 3.77167 1.13255 1.76704 3.02241 0.736353C4.44646 -0.043496 6.26908 -0.154206 7.82832 0.172308C9.4471 0.511434 10.7612 1.46926 11.5576 2.91965C11.8035 3.36458 12.0024 3.85645 12.1509 4.40367C12.1551 4.42469 12.1467 4.44642 12.1257 4.45062L10.9986 4.7477C10.9776 4.75191 10.9559 4.7393 10.9517 4.72248C10.7822 4.07786 10.5153 3.50541 10.1462 3.00583C8.99318 1.43703 6.87848 1.01733 5.05587 1.34384C2.90684 1.72991 1.72024 3.23916 1.37281 5.31175C1.08912 6.99477 1.17808 8.94474 1.9535 10.4967C2.60633 11.8028 3.78872 12.5357 5.21277 12.7396C5.97978 12.8454 6.72999 12.8328 7.46338 12.6968C8.51478 12.502 9.64182 11.8063 10.0992 10.8099C10.3962 10.1653 10.4256 9.34762 10.0992 8.70721C9.9129 8.34286 9.63272 8.04997 9.26427 7.82996C9.24746 7.81735 9.22155 7.82576 9.21314 7.84258C9.20894 7.84678 9.20893 7.85098 9.20893 7.85519C9.16621 8.16909 9.09477 8.47809 8.98829 8.77938C8.83559 9.20749 8.61565 9.57674 8.32285 9.87733C7.3394 10.8905 5.62746 10.9795 4.47029 10.2501C3.54637 9.66503 3.19893 8.46968 3.63953 7.48593C4.09693 6.46855 5.21627 6.02784 6.27958 5.97669C6.88128 5.94726 7.43676 5.97248 7.9495 6.04465C7.97051 6.04885 7.98731 6.03204 7.99222 6.01102V5.9984C7.94529 5.76508 7.89065 5.5745 7.82271 5.42596C7.46687 4.64191 6.66554 4.4338 5.86491 4.5354C5.35217 4.59916 4.94939 4.84089 4.64819 5.25639C4.63558 5.27321 4.61457 5.27741 4.59706 5.2648L3.63953 4.61178C3.62271 4.59917 3.61852 4.57814 3.63113 4.55642C4.14387 3.83543 4.83872 3.41572 5.72061 3.30152C6.44979 3.20412 7.26725 3.31833 7.90327 3.7044C8.85661 4.28946 9.19563 5.34118 9.28038 6.4048C9.28879 6.42582 9.29719 6.43843 9.3098 6.44264H9.3126ZM4.73925 8.10463C4.54873 8.74505 4.98933 9.24953 5.58683 9.40158C6.42598 9.61388 7.3583 9.4268 7.75687 8.56637C7.91377 8.22725 8.00694 7.82856 8.03635 7.37523C8.03635 7.35421 8.02375 7.33739 8.00694 7.33739C7.38423 7.21477 6.74399 7.18885 6.09116 7.25261C5.56161 7.30796 4.90456 7.5497 4.73925 8.10463Z" fill="#595959"/>
</svg>
