<svg width="10" height="11" viewBox="0 0 10 11" fill="none" xmlns="http://www.w3.org/2000/svg">
<path d="M9.48955 2.65284V4.54122C9.15962 4.50899 8.73092 4.43402 8.25669 4.26024C7.63745 4.03322 7.17653 3.7228 6.87462 3.48247V7.29917L6.86691 7.28725C6.87182 7.36293 6.87462 7.44001 6.87462 7.51778C6.87462 9.41317 5.33284 10.9561 3.43731 10.9561C1.54178 10.9561 0 9.41317 0 7.51778C0 5.6224 1.54178 4.07876 3.43731 4.07876C3.62294 4.07876 3.80507 4.09347 3.98299 4.1222V5.98325C3.81207 5.92229 3.62854 5.88936 3.43731 5.88936C2.53998 5.88936 1.80937 6.61949 1.80937 7.51778C1.80937 8.41608 2.53998 9.1462 3.43731 9.1462C4.33464 9.1462 5.06525 8.41538 5.06525 7.51778C5.06525 7.48415 5.06455 7.45052 5.06245 7.41688V0H6.94887C6.95587 0.159759 6.96218 0.320923 6.96919 0.480681C6.9818 0.795295 7.09387 1.09729 7.28931 1.34464C7.51837 1.63543 7.85671 1.97316 8.33164 2.24293C8.77645 2.49448 9.19394 2.60309 9.48955 2.65424V2.65284Z" fill="#595959"/>
</svg>
