<svg width="14" height="13" viewBox="0 0 14 13" fill="none" xmlns="http://www.w3.org/2000/svg">
<path d="M8.46192 9.22529C5.90303 9.22529 3.82117 7.14213 3.82047 4.58248C3.82117 3.93363 4.34934 3.40601 4.99659 3.40601C5.06314 3.40601 5.12898 3.41161 5.19202 3.42282C5.33072 3.44594 5.46242 3.49289 5.5836 3.56366C5.60112 3.57417 5.61302 3.59099 5.61582 3.61061L5.88621 5.31541C5.88971 5.33503 5.88341 5.35535 5.8701 5.37006C5.7209 5.53543 5.53036 5.65454 5.31812 5.7141L5.21585 5.74283L5.25437 5.84163C5.60321 6.73011 6.31351 7.43992 7.20244 7.79027L7.30121 7.82951L7.32992 7.72721C7.38946 7.5149 7.50855 7.32431 7.67387 7.17506C7.68577 7.16385 7.70189 7.15824 7.718 7.15824C7.7215 7.15824 7.725 7.15824 7.72921 7.15894L9.4335 7.42941C9.45381 7.43292 9.47063 7.44412 9.48114 7.46164C9.55119 7.58286 9.59812 7.7153 9.62194 7.85403C9.63314 7.9157 9.63805 7.98086 9.63805 8.04883C9.63805 8.69697 9.11057 9.22459 8.46192 9.22529Z" fill="#595959"/>
<path d="M12.9997 5.73871C12.8617 4.17896 12.1472 2.73202 10.9879 1.66486C9.82159 0.591389 8.30852 0 6.72612 0C3.25308 0 0.427306 2.82661 0.427306 6.30067C0.427306 7.46663 0.748825 8.60246 1.35755 9.59185L0 12.5978L4.34655 12.1347C5.10238 12.4444 5.90234 12.6013 6.72541 12.6013C6.94187 12.6013 7.16393 12.5901 7.38668 12.567C7.58282 12.546 7.78106 12.5152 7.9758 12.4759C10.8842 11.888 13.0074 9.30596 13.0242 6.3343V6.30067C13.0242 6.11148 13.0158 5.92229 12.999 5.73941L12.9997 5.73871ZM4.51397 10.8153L2.10919 11.0717L2.82719 9.48043L2.68358 9.28774C2.67308 9.27373 2.66257 9.25971 2.65066 9.2436C2.02723 8.38244 1.69799 7.36503 1.69799 6.30137C1.69799 3.52801 3.95357 1.27177 6.72612 1.27177C9.32354 1.27177 11.5252 3.29888 11.7374 5.88656C11.7486 6.0253 11.7549 6.16473 11.7549 6.30207C11.7549 6.34131 11.7542 6.37985 11.7535 6.42119C11.7003 8.7412 10.0801 10.7116 7.81328 11.2133C7.64026 11.2518 7.46303 11.2812 7.28651 11.3001C7.10298 11.3212 6.91455 11.3317 6.72752 11.3317C6.06135 11.3317 5.4141 11.2027 4.80257 10.9477C4.73462 10.9204 4.66807 10.8909 4.60573 10.8608L4.51467 10.8167L4.51397 10.8153Z" fill="#595959"/>
</svg>
