<svg xmlns="http://www.w3.org/2000/svg" viewBox="0 0 120 120" width="120" height="120">
  <defs>
    <radialGradient id="lip" cx="50%" cy="40%" r="60%">
      <stop offset="0%" stop-color="#c41e3a"/>
      <stop offset="60%" stop-color="#8b1538"/>
      <stop offset="100%" stop-color="#5c0a20"/>
    </radialGradient>
  </defs>
  <path d="M30 55 C30 35 50 25 60 35 C70 25 90 35 90 55 C90 80 60 100 60 100 C60 100 30 80 30 55 Z"
    fill="url(#lip)" opacity="0.92"/>
  <path d="M42 48 C48 42 55 44 60 50 C65 44 72 42 78 48 C75 55 68 58 60 56 C52 58 45 55 42 48 Z"
    fill="#e83850" opacity="0.5"/>
  <ellipse cx="52" cy="52" rx="8" ry="5" fill="#ff6070" opacity="0.25" transform="rotate(-15 52 52)"/>
</svg>
