<svg xmlns="http://www.w3.org/2000/svg" viewBox="0 0 120 120" width="120" height="120">
  <defs>
    <radialGradient id="wax" cx="40%" cy="35%" r="65%">
      <stop offset="0%" stop-color="#f5d78e"/>
      <stop offset="45%" stop-color="#d4a84b"/>
      <stop offset="100%" stop-color="#8b6914"/>
    </radialGradient>
    <filter id="shadow">
      <feDropShadow dx="0" dy="2" stdDeviation="2" flood-opacity="0.3"/>
    </filter>
  </defs>
  <circle cx="60" cy="62" r="52" fill="url(#wax)" filter="url(#shadow)"/>
  <ellipse cx="60" cy="58" rx="48" ry="46" fill="none" stroke="#b8922a" stroke-width="1.5" opacity="0.5"/>
  <g fill="#7a5c10" opacity="0.85">
    <circle cx="60" cy="58" r="6"/>
    <path d="M60 28 L63 50 L60 46 L57 50 Z"/>
    <path d="M60 88 L63 66 L60 70 L57 66 Z"/>
    <path d="M30 58 L52 55 L48 58 L52 61 Z"/>
    <path d="M90 58 L68 55 L72 58 L68 61 Z"/>
    <path d="M38 38 L54 52 L50 54 L48 50 Z"/>
    <path d="M82 38 L66 52 L70 54 L72 50 Z"/>
    <path d="M38 78 L54 64 L50 62 L48 66 Z"/>
    <path d="M82 78 L66 64 L70 62 L72 66 Z"/>
  </g>
</svg>
